<svg id="Layer_1" data-name="Layer 1" xmlns="http://www.w3.org/2000/svg" viewBox="0 0 400 100"><defs><style>.cls-1,.cls-2{fill:#12419b;}.cls-2{stroke:#2e3192;stroke-miterlimit:10;stroke-width:0.2px;}</style></defs><rect class="cls-1" x="41.19" y="3.41" width="9.57" height="47.2" rx="2.19"/><path class="cls-1" d="M14.51,73.14a10.9,10.9,0,0,1,2.37-2.22A33,33,0,0,1,33.46,25a4.78,4.78,0,0,0,2.95-4.42h0a4.79,4.79,0,0,0-6.6-4.44A42.52,42.52,0,0,0,12,81,12.31,12.31,0,0,1,14.51,73.14Z"/><path class="cls-1" d="M58.5,25a33,33,0,0,1,19,40l0,0-.09.3c-.16.5-.32,1-.51,1.48,2.55-2.9,4.84-4.24,7.15-4.24A5.29,5.29,0,0,1,87.62,64,42.61,42.61,0,0,0,62.15,16.16a4.8,4.8,0,0,0-6.61,4.44h0A4.79,4.79,0,0,0,58.5,25Z"/><path class="cls-1" d="M86.52,68.23a41.9,41.9,0,0,1-3.13,7.42A42.47,42.47,0,0,1,16.58,86.16l-.41-.39-.45-.45C12.09,70,27.48,70.69,31.59,72.06c4.38,1.45,12.16-.32,19.7-3.89s5,1.48,1.75,4.35-11,5.6-10.13,9.78S68,85.37,76.3,72.94,86.57,68.09,86.52,68.23Z"/><path class="cls-1" d="M110.15,45a15.39,15.39,0,0,1-2.17-.18,7.44,7.44,0,0,1-2.45-.81,5.15,5.15,0,0,1-2-2,7.24,7.24,0,0,1-.82-3.73V22.47H99.07a.85.85,0,0,1-1-1,1.08,1.08,0,0,1,.45-.87l7-6.79c.07-.07.18-.16.33-.28a.84.84,0,0,1,.54-.18.89.89,0,0,1,.69.31,1,1,0,0,1,.28.71v4.09h5.77a2,2,0,0,1,1.43,3.39,1.87,1.87,0,0,1-1.43.59h-5.77V37.89A3.28,3.28,0,0,0,107.9,40a2.2,2.2,0,0,0,1.35.79,9.71,9.71,0,0,0,1.41.13,5.39,5.39,0,0,0,1.81-.23,3.27,3.27,0,0,1,1.25-.23A1.86,1.86,0,0,1,115,41a1.72,1.72,0,0,1,.56,1.33,1.92,1.92,0,0,1-1.18,1.78,10.76,10.76,0,0,1-2,.67A9.63,9.63,0,0,1,110.15,45Z"/><path class="cls-1" d="M123,44.79a2.27,2.27,0,0,1-2.29-2.3V20.58a2.33,2.33,0,0,1,.66-1.66,2.18,2.18,0,0,1,1.63-.69,2.36,2.36,0,0,1,2.35,2.35v2.2a16.34,16.34,0,0,1,3.37-3.32A7.57,7.57,0,0,1,133.33,18h.25a2.13,2.13,0,0,1,1.61.66,2.25,2.25,0,0,1,.64,1.64,2.07,2.07,0,0,1-.66,1.58,2.39,2.39,0,0,1-1.69.61h-.25a8.57,8.57,0,0,0-4.55,1.25A10.89,10.89,0,0,0,125.31,27V42.49a2.16,2.16,0,0,1-.69,1.63A2.28,2.28,0,0,1,123,44.79Z"/><path class="cls-1" d="M149.11,45a8.77,8.77,0,0,1-5-1.35A8.68,8.68,0,0,1,141,40,11.76,11.76,0,0,1,140,35V20.53a2.16,2.16,0,0,1,.69-1.63,2.28,2.28,0,0,1,1.66-.67,2.27,2.27,0,0,1,2.29,2.3v14a7.14,7.14,0,0,0,1.33,4.57,5.17,5.17,0,0,0,4.29,1.66,7.88,7.88,0,0,0,4.8-1.5,19.64,19.64,0,0,0,3.58-3.4V20.53a2.16,2.16,0,0,1,.69-1.63,2.28,2.28,0,0,1,1.66-.67,2.27,2.27,0,0,1,2.29,2.3V42.44a2.33,2.33,0,0,1-.66,1.66,2.18,2.18,0,0,1-1.63.69,2.36,2.36,0,0,1-2.35-2.35v-2.1a20.57,20.57,0,0,1-3.83,3.22A10.09,10.09,0,0,1,149.11,45Z"/><path class="cls-1" d="M173.62,44.79a2.29,2.29,0,0,1-2.3-2.3V20.58A2.25,2.25,0,0,1,172,18.9a2.18,2.18,0,0,1,1.63-.67,2.28,2.28,0,0,1,1.66.67,2.22,2.22,0,0,1,.69,1.68v2.1a19.87,19.87,0,0,1,3.85-3.25A10.13,10.13,0,0,1,185.47,18a8.46,8.46,0,0,1,8.07,5,11.69,11.69,0,0,1,1.07,5v14.5a2.16,2.16,0,0,1-.69,1.63,2.29,2.29,0,0,1-1.66.67,2.27,2.27,0,0,1-2.3-2.3v-14a7.2,7.2,0,0,0-1.3-4.57c-.87-1.11-2.31-1.66-4.32-1.66a7.93,7.93,0,0,0-4.8,1.48A18.12,18.12,0,0,0,176,27.17V42.49a2.16,2.16,0,0,1-.69,1.63A2.28,2.28,0,0,1,173.62,44.79Z"/><path class="cls-1" d="M214.57,56.79a23.44,23.44,0,0,1-6.12-.82,20.62,20.62,0,0,1-4.8-1.84,2.52,2.52,0,0,1-.64-.66,2,2,0,0,1-.28-1.13,2.14,2.14,0,0,1,.58-1.43,1.88,1.88,0,0,1,1.46-.66,2.44,2.44,0,0,1,.48,0,2.09,2.09,0,0,1,.44.16,19.77,19.77,0,0,0,3.73,1.37,17.83,17.83,0,0,0,4.69.57q7.81,0,7.82-8.33V40.65a13.61,13.61,0,0,1-3.73,2.78,10.75,10.75,0,0,1-5,1.1,12.05,12.05,0,0,1-4.31-.82A12.25,12.25,0,0,1,202,37.13a14.25,14.25,0,0,1-1.12-5.88A14.23,14.23,0,0,1,202,25.38a12.17,12.17,0,0,1,2.94-4.13,12.46,12.46,0,0,1,4-2.46,12.26,12.26,0,0,1,4.31-.81,10.75,10.75,0,0,1,5,1.1,13.61,13.61,0,0,1,3.73,2.78V20.58a2.33,2.33,0,0,1,.66-1.66,2.18,2.18,0,0,1,1.63-.69,2.24,2.24,0,0,1,1.66.69,2.27,2.27,0,0,1,.69,1.66V43.41q0,6.44-3.11,9.9T214.57,56.79Zm-.41-16.5a8.24,8.24,0,0,0,4.5-1.17,19.32,19.32,0,0,0,3.27-2.61V26a17.57,17.57,0,0,0-3.27-2.62,8.32,8.32,0,0,0-4.5-1.15,9.85,9.85,0,0,0-4.39,1,7.21,7.21,0,0,0-3.14,3,10.24,10.24,0,0,0-1.15,5.08,10.25,10.25,0,0,0,1.15,5.09,7.21,7.21,0,0,0,3.14,3A9.85,9.85,0,0,0,214.16,40.29Z"/><path class="cls-1" d="M243.63,45a15.51,15.51,0,0,1-2.17-.18,7.52,7.52,0,0,1-2.45-.81,5.29,5.29,0,0,1-2-2,7.34,7.34,0,0,1-.82-3.73V22.47h-3.62a.85.85,0,0,1-1-1,1.06,1.06,0,0,1,.46-.87L239,13.84c.07-.07.18-.16.33-.28a.88.88,0,0,1,.54-.18.89.89,0,0,1,.69.31,1,1,0,0,1,.28.71v4.09h5.77a1.94,1.94,0,0,1,1.43.56,1.91,1.91,0,0,1,.56,1.43,1.93,1.93,0,0,1-.56,1.4,1.86,1.86,0,0,1-1.43.59h-5.77V37.89a3.34,3.34,0,0,0,.56,2.15,2.25,2.25,0,0,0,1.36.79,9.46,9.46,0,0,0,1.4.13,5.35,5.35,0,0,0,1.81-.23,3.27,3.27,0,0,1,1.25-.23,1.84,1.84,0,0,1,1.28.51,1.72,1.72,0,0,1,.56,1.33,1.93,1.93,0,0,1-1.17,1.78,10.86,10.86,0,0,1-2,.67A9.57,9.57,0,0,1,243.63,45Z"/><path class="cls-1" d="M256.45,44.79a2.27,2.27,0,0,1-2.3-2.3V20.58a2.33,2.33,0,0,1,.66-1.66,2.18,2.18,0,0,1,1.64-.69,2.36,2.36,0,0,1,2.35,2.35v2.2a16.1,16.1,0,0,1,3.37-3.32A7.52,7.52,0,0,1,266.81,18h.26a2.16,2.16,0,0,1,1.61.66,2.29,2.29,0,0,1,.63,1.64,2.07,2.07,0,0,1-.66,1.58,2.36,2.36,0,0,1-1.68.61h-.26a8.54,8.54,0,0,0-4.54,1.25A10.68,10.68,0,0,0,258.8,27V42.49a2.16,2.16,0,0,1-.69,1.63A2.29,2.29,0,0,1,256.45,44.79Z"/><path class="cls-1" d="M280.34,45a9.3,9.3,0,0,1-4.11-.92,7.59,7.59,0,0,1-3.06-2.63A7.17,7.17,0,0,1,272,37.38a7.3,7.3,0,0,1,2.89-6q2.88-2.33,8.86-2.32h6.17V28.7q0-3.42-1.68-4.88t-5.16-1.45a16.6,16.6,0,0,0-3.75.38c-1.07.26-2.09.54-3,.84a2.8,2.8,0,0,1-.66.11,1.83,1.83,0,0,1-1.33-.56,1.87,1.87,0,0,1-.56-1.38,2,2,0,0,1,1.32-1.94,26.64,26.64,0,0,1,4-1.31,20.79,20.79,0,0,1,4.88-.53A11.24,11.24,0,0,1,290,19.46a9.3,9.3,0,0,1,3.47,3.78,10.77,10.77,0,0,1,1.12,4.8V42.49a2.16,2.16,0,0,1-.69,1.63,2.28,2.28,0,0,1-1.66.67,2.2,2.2,0,0,1-1.63-.67,2.22,2.22,0,0,1-.67-1.63V41.16a14.61,14.61,0,0,1-3.67,2.66A12.65,12.65,0,0,1,280.34,45ZM282.08,41a8.94,8.94,0,0,0,4.49-1.18,12.38,12.38,0,0,0,3.37-2.65V32.84h-5.56a14,14,0,0,0-5.64.92,3.18,3.18,0,0,0-2.07,3.11,4,4,0,0,0,1.15,2.86Q279,41,282.08,41Z"/><path class="cls-1" d="M304.7,44.79a2.2,2.2,0,0,1-1.63-.67,2.22,2.22,0,0,1-.67-1.63V20.58a2.28,2.28,0,0,1,.67-1.68,2.2,2.2,0,0,1,1.63-.67,2.28,2.28,0,0,1,1.66.67,2.22,2.22,0,0,1,.69,1.68v2.1a19.94,19.94,0,0,1,3.86-3.25A10.1,10.1,0,0,1,316.55,18a8.46,8.46,0,0,1,8.07,5,11.69,11.69,0,0,1,1.07,5v14.5a2.16,2.16,0,0,1-.69,1.63,2.28,2.28,0,0,1-1.66.67,2.29,2.29,0,0,1-2.3-2.3v-14a7.2,7.2,0,0,0-1.3-4.57c-.87-1.11-2.31-1.66-4.31-1.66a7.93,7.93,0,0,0-4.8,1.48,17.9,17.9,0,0,0-3.58,3.42V42.49a2.16,2.16,0,0,1-.69,1.63A2.28,2.28,0,0,1,304.7,44.79Z"/><path class="cls-1" d="M335.85,44.68a2.78,2.78,0,0,1-2-.84,2.74,2.74,0,0,1-.84-2v-.31a2.87,2.87,0,0,1,2.86-2.86h.51a2.87,2.87,0,0,1,2.86,2.86v.31a2.87,2.87,0,0,1-2.86,2.85Z"/><path class="cls-1" d="M354,44.79a2.76,2.76,0,0,1-1.71-.56,3.65,3.65,0,0,1-1.1-1.33l-8.88-21.25a2.81,2.81,0,0,1-.26-1.07,2.33,2.33,0,0,1,.66-1.66,2.2,2.2,0,0,1,1.64-.69,2.29,2.29,0,0,1,1.3.39,1.87,1.87,0,0,1,.79.94l7.82,19.81,7.81-19.81a2.3,2.3,0,0,1,3.73-.64,2.33,2.33,0,0,1,.66,1.66,2.81,2.81,0,0,1-.26,1.07L357.3,42.9a3.65,3.65,0,0,1-1.1,1.33,2.76,2.76,0,0,1-1.71.56Z"/><path class="cls-1" d="M374.1,44.79a2.29,2.29,0,0,1-2.3-2.3V20.58a2.25,2.25,0,0,1,.67-1.68,2.18,2.18,0,0,1,1.63-.67,2.28,2.28,0,0,1,1.66.67,2.22,2.22,0,0,1,.69,1.68v2.1a19.87,19.87,0,0,1,3.85-3.25A10.15,10.15,0,0,1,386,18,8.46,8.46,0,0,1,394,23a11.69,11.69,0,0,1,1.07,5v14.5a2.16,2.16,0,0,1-.69,1.63,2.29,2.29,0,0,1-1.66.67,2.27,2.27,0,0,1-2.3-2.3v-14a7.2,7.2,0,0,0-1.3-4.57c-.87-1.11-2.31-1.66-4.32-1.66a8,8,0,0,0-4.8,1.48,18.12,18.12,0,0,0-3.57,3.42V42.49a2.16,2.16,0,0,1-.69,1.63A2.28,2.28,0,0,1,374.1,44.79Z"/><path class="cls-2" d="M121.93,84.92q0,5.79-2.94,9.16a10.95,10.95,0,0,1-15.82,0q-3-3.37-3-9.16v-10q0-5.74,2.94-9.14a10.9,10.9,0,0,1,15.82,0q3,3.39,3,9.14Zm-4.62-11a9.29,9.29,0,0,0-1.64-5.82A5.51,5.51,0,0,0,111,66a5.43,5.43,0,0,0-4.59,2.13,9.42,9.42,0,0,0-1.62,5.82V85.86a9.37,9.37,0,0,0,1.65,5.83,6,6,0,0,0,9.23,0,9.55,9.55,0,0,0,1.61-5.84Z"/><path class="cls-2" d="M136.32,93.85a6.88,6.88,0,0,0,5.38-2.3A9.43,9.43,0,0,0,143.75,85V82.13a7.41,7.41,0,0,1-2.8,2.52,8,8,0,0,1-3.67.85,10,10,0,0,1-7.72-3q-2.81-3-2.8-8.43a12,12,0,0,1,3-8.42,9.57,9.57,0,0,1,7.36-3.27,10.89,10.89,0,0,1,8.21,3.21q3.09,3.21,3.09,9.07V85q0,5.88-3.37,9.17a11.92,11.92,0,0,1-8.7,3.3,19,19,0,0,1-3.69-.38A17.1,17.1,0,0,1,129.1,96l.7-3.52a13.51,13.51,0,0,0,3,1.07A16.91,16.91,0,0,0,136.32,93.85Zm1-12a7.13,7.13,0,0,0,4.07-1.1,6.43,6.43,0,0,0,2.4-2.81V74a9.06,9.06,0,0,0-1.71-5.9A5.89,5.89,0,0,0,137.23,66a5.06,5.06,0,0,0-4.18,2.24A9.43,9.43,0,0,0,131.38,74a9.6,9.6,0,0,0,1.54,5.69A5.06,5.06,0,0,0,137.28,81.89Z"/><path class="cls-2" d="M165.17,77.56c2.06,0,3.52-.51,4.37-1.54a6.53,6.53,0,0,0,1.28-4.3,6.06,6.06,0,0,0-1.39-4.16A5.24,5.24,0,0,0,165.29,66a6.19,6.19,0,0,0-4.42,1.65,5.47,5.47,0,0,0-1.74,4.14h-4.41l-.07-.14a8.16,8.16,0,0,1,2.9-6.56,11.12,11.12,0,0,1,7.74-2.72,10.8,10.8,0,0,1,7.45,2.4q2.7,2.4,2.7,7.07a8,8,0,0,1-1.26,4.36,8.46,8.46,0,0,1-3.5,3.07,8,8,0,0,1,3.93,3.13A9.21,9.21,0,0,1,176,87.45a9.41,9.41,0,0,1-3,7.35,11.11,11.11,0,0,1-7.7,2.66,12.2,12.2,0,0,1-7.68-2.57,7.88,7.88,0,0,1-3.2-6.78l.05-.15h4.41a5.52,5.52,0,0,0,1.79,4.19,6.48,6.48,0,0,0,4.63,1.7,5.73,5.73,0,0,0,4.43-1.75,6.42,6.42,0,0,0,1.62-4.56,6.81,6.81,0,0,0-1.49-4.8,6.13,6.13,0,0,0-4.68-1.6h-3.79V77.56Z"/><path class="cls-2" d="M205.58,62.35a19.68,19.68,0,0,1,4,.4,14.36,14.36,0,0,1,3.26,1l-1,3.54a18,18,0,0,0-2.82-1,14.59,14.59,0,0,0-3.44-.36,6.19,6.19,0,0,0-5.22,2.74,11.5,11.5,0,0,0-2,6.94v2.65a10.46,10.46,0,0,1,3.39-2.25,10.66,10.66,0,0,1,4.2-.82,8.78,8.78,0,0,1,7,3A11.42,11.42,0,0,1,215.49,86a11.89,11.89,0,0,1-2.87,8.38,10,10,0,0,1-7.74,3.13,10.17,10.17,0,0,1-7.93-3.6q-3.18-3.6-3.18-9.83V76.18a14.53,14.53,0,0,1,3.41-9.92A10.7,10.7,0,0,1,205.58,62.35Zm-1.1,16.33a7.16,7.16,0,0,0-3.74.93,6.22,6.22,0,0,0-2.38,2.5v2.36a11.19,11.19,0,0,0,1.89,6.86,5.6,5.6,0,0,0,4.63,2.52,5.13,5.13,0,0,0,4.44-2.19A9.64,9.64,0,0,0,210.88,86a7.89,7.89,0,0,0-1.68-5.3A5.87,5.87,0,0,0,204.48,78.68Z"/><path class="cls-2" d="M232.6,62.35a19.78,19.78,0,0,1,4,.4,14.43,14.43,0,0,1,3.25,1l-1,3.54a18.19,18.19,0,0,0-2.81-1A14.74,14.74,0,0,0,232.6,66a6.16,6.16,0,0,0-5.21,2.74,11.43,11.43,0,0,0-2,6.94v2.65a10.57,10.57,0,0,1,3.39-2.25,10.71,10.71,0,0,1,4.21-.82,8.76,8.76,0,0,1,7,3A11.42,11.42,0,0,1,242.52,86a11.9,11.9,0,0,1-2.88,8.38,10,10,0,0,1-7.74,3.13,10.14,10.14,0,0,1-7.92-3.6q-3.19-3.6-3.19-9.83V76.18a14.58,14.58,0,0,1,3.41-9.92A10.7,10.7,0,0,1,232.6,62.35Zm-1.1,16.33a7.18,7.18,0,0,0-3.74.93,6.22,6.22,0,0,0-2.38,2.5v2.36a11.19,11.19,0,0,0,1.89,6.86,5.62,5.62,0,0,0,4.63,2.52,5.13,5.13,0,0,0,4.44-2.19A9.64,9.64,0,0,0,237.9,86a7.89,7.89,0,0,0-1.68-5.3A5.86,5.86,0,0,0,231.5,78.68Z"/><path class="cls-2" d="M256.34,93.85a6.86,6.86,0,0,0,5.38-2.3,9.43,9.43,0,0,0,2-6.51V82.13a7.41,7.41,0,0,1-2.8,2.52,7.93,7.93,0,0,1-3.67.85,10,10,0,0,1-7.72-3q-2.81-3-2.8-8.43a12,12,0,0,1,3-8.42,9.55,9.55,0,0,1,7.36-3.27,10.87,10.87,0,0,1,8.2,3.21q3.09,3.21,3.09,9.07V85q0,5.88-3.37,9.17a11.92,11.92,0,0,1-8.7,3.3,19,19,0,0,1-3.69-.38,16.82,16.82,0,0,1-3.52-1.1l.7-3.52a13.27,13.27,0,0,0,3,1.07A17,17,0,0,0,256.34,93.85Zm1-12a7.13,7.13,0,0,0,4.07-1.1,6.43,6.43,0,0,0,2.4-2.81V74a9.06,9.06,0,0,0-1.71-5.9,5.88,5.88,0,0,0-4.8-2.07,5.07,5.07,0,0,0-4.19,2.24A9.5,9.5,0,0,0,251.4,74,9.53,9.53,0,0,0,253,79.73,5,5,0,0,0,257.3,81.89Z"/><path class="cls-2" d="M297.13,77.56c2.06,0,3.51-.51,4.37-1.54a6.53,6.53,0,0,0,1.27-4.3,6.06,6.06,0,0,0-1.39-4.16A5.24,5.24,0,0,0,297.24,66a6.19,6.19,0,0,0-4.42,1.65,5.47,5.47,0,0,0-1.74,4.14h-4.41l-.07-.14a8.13,8.13,0,0,1,2.91-6.56,11.07,11.07,0,0,1,7.73-2.72,10.84,10.84,0,0,1,7.46,2.4q2.69,2.4,2.69,7.07a8,8,0,0,1-1.25,4.36,8.55,8.55,0,0,1-3.51,3.07,8,8,0,0,1,3.93,3.13,9.13,9.13,0,0,1,1.35,5.07,9.38,9.38,0,0,1-3,7.35,11.11,11.11,0,0,1-7.7,2.66,12.19,12.19,0,0,1-7.67-2.57,7.85,7.85,0,0,1-3.2-6.78l0-.15h4.41a5.56,5.56,0,0,0,1.79,4.19,6.48,6.48,0,0,0,4.63,1.7,5.72,5.72,0,0,0,4.43-1.75,6.42,6.42,0,0,0,1.62-4.56,6.81,6.81,0,0,0-1.49-4.8,6.12,6.12,0,0,0-4.67-1.6h-3.8V77.56Z"/><path class="cls-2" d="M324.15,77.56c2.06,0,3.52-.51,4.37-1.54a6.53,6.53,0,0,0,1.28-4.3,6.07,6.07,0,0,0-1.4-4.16A5.23,5.23,0,0,0,324.27,66a6.16,6.16,0,0,0-4.42,1.65,5.44,5.44,0,0,0-1.75,4.14h-4.4l-.07-.14a8.16,8.16,0,0,1,2.9-6.56,11.12,11.12,0,0,1,7.74-2.72,10.81,10.81,0,0,1,7.45,2.4c1.8,1.6,2.69,4,2.69,7.07a7.94,7.94,0,0,1-1.25,4.36,8.52,8.52,0,0,1-3.5,3.07,8,8,0,0,1,3.92,3.13,9.13,9.13,0,0,1,1.35,5.07,9.38,9.38,0,0,1-3,7.35,11.08,11.08,0,0,1-7.69,2.66,12.2,12.2,0,0,1-7.68-2.57,7.85,7.85,0,0,1-3.2-6.78l.05-.15h4.4a5.53,5.53,0,0,0,1.8,4.19,6.46,6.46,0,0,0,4.63,1.7,5.73,5.73,0,0,0,4.43-1.75,6.46,6.46,0,0,0,1.61-4.56,6.77,6.77,0,0,0-1.49-4.8,6.12,6.12,0,0,0-4.67-1.6h-3.8V77.56Z"/><path class="cls-2" d="M361.27,71.56a7.69,7.69,0,0,1-1.5,4.7,9,9,0,0,1-4,3,10,10,0,0,1,4.66,3.21,7.9,7.9,0,0,1,1.76,5.09,9,9,0,0,1-3.06,7.29,11.66,11.66,0,0,1-7.79,2.58,12.58,12.58,0,0,1-8.19-2.58A8.85,8.85,0,0,1,340,87.59a7.82,7.82,0,0,1,1.8-5.09,10.34,10.34,0,0,1,4.84-3.23,9,9,0,0,1-4.15-3,7.59,7.59,0,0,1-1.53-4.7,8.38,8.38,0,0,1,2.87-6.85,11.44,11.44,0,0,1,7.49-2.36,10.63,10.63,0,0,1,7.16,2.38A8.44,8.44,0,0,1,361.27,71.56ZM357.62,87.5a6.23,6.23,0,0,0-1.82-4.6,6.13,6.13,0,0,0-4.49-1.8,6.7,6.7,0,0,0-4.8,1.8,6.07,6.07,0,0,0-1.9,4.6,5.94,5.94,0,0,0,1.89,4.61,6.88,6.88,0,0,0,4.86,1.74,6.08,6.08,0,0,0,6.26-6.35Zm-1-15.87a5.65,5.65,0,0,0-1.54-4.06A5.07,5.07,0,0,0,351.31,66a5.72,5.72,0,0,0-4.12,1.54,5.38,5.38,0,0,0-1.62,4.11,5.57,5.57,0,0,0,5.79,5.83,4.92,4.92,0,0,0,3.78-1.61A5.94,5.94,0,0,0,356.66,71.63Z"/><path class="cls-2" d="M388.3,71.56a7.69,7.69,0,0,1-1.5,4.7,9.07,9.07,0,0,1-4,3,10.09,10.09,0,0,1,4.67,3.21,7.94,7.94,0,0,1,1.75,5.09,9,9,0,0,1-3.05,7.29,11.68,11.68,0,0,1-7.8,2.58,12.58,12.58,0,0,1-8.19-2.58A8.85,8.85,0,0,1,367,87.59a7.81,7.81,0,0,1,1.79-5.09,10.39,10.39,0,0,1,4.84-3.23,9.05,9.05,0,0,1-4.15-3,7.58,7.58,0,0,1-1.52-4.7,8.35,8.35,0,0,1,2.87-6.85,11.42,11.42,0,0,1,7.49-2.36,10.67,10.67,0,0,1,7.16,2.38A8.47,8.47,0,0,1,388.3,71.56ZM384.64,87.5a6.19,6.19,0,0,0-1.82-4.6,6.11,6.11,0,0,0-4.48-1.8,6.72,6.72,0,0,0-4.81,1.8,6.11,6.11,0,0,0-1.9,4.6,5.94,5.94,0,0,0,1.89,4.61,6.89,6.89,0,0,0,4.86,1.74,6.06,6.06,0,0,0,6.26-6.35Zm-1-15.87a5.61,5.61,0,0,0-1.54-4.06,5.07,5.07,0,0,0-3.8-1.59,5.73,5.73,0,0,0-4.13,1.54,5.38,5.38,0,0,0-1.62,4.11,5.57,5.57,0,0,0,5.79,5.83,5,5,0,0,0,3.79-1.61A5.93,5.93,0,0,0,383.68,71.63Z"/></svg>